<?xml version="1.0" standalone="yes"?><svg xmlns="http://www.w3.org/2000/svg" version="1.1" width="205" height="205" viewBox="0 0 205 205" shape-rendering="crispEdges"><rect x="0" y="0" width="205" height="205" fill="#ffffff"/><path fill="#000000" d="M20 20h5v5H20V20M25 20h5v5H25V20M30 20h5v5H30V20M35 20h5v5H35V20M40 20h5v5H40V20M45 20h5v5H45V20M50 20h5v5H50V20M65 20h5v5H65V20M70 20h5v5H70V20M75 20h5v5H75V20M90 20h5v5H90V20M100 20h5v5H100V20M115 20h5v5H115V20M120 20h5v5H120V20M125 20h5v5H125V20M135 20h5v5H135V20M150 20h5v5H150V20M155 20h5v5H155V20M160 20h5v5H160V20M165 20h5v5H165V20M170 20h5v5H170V20M175 20h5v5H175V20M180 20h5v5H180V20M20 25h5v5H20V25M50 25h5v5H50V25M70 25h5v5H70V25M80 25h5v5H80V25M110 25h5v5H110V25M130 25h5v5H130V25M150 25h5v5H150V25M180 25h5v5H180V25M20 30h5v5H20V30M30 30h5v5H30V30M35 30h5v5H35V30M40 30h5v5H40V30M50 30h5v5H50V30M60 30h5v5H60V30M70 30h5v5H70V30M75 30h5v5H75V30M90 30h5v5H90V30M100 30h5v5H100V30M110 30h5v5H110V30M115 30h5v5H115V30M120 30h5v5H120V30M140 30h5v5H140V30M150 30h5v5H150V30M160 30h5v5H160V30M165 30h5v5H165V30M170 30h5v5H170V30M180 30h5v5H180V30M20 35h5v5H20V35M30 35h5v5H30V35M35 35h5v5H35V35M40 35h5v5H40V35M50 35h5v5H50V35M60 35h5v5H60V35M65 35h5v5H65V35M70 35h5v5H70V35M95 35h5v5H95V35M110 35h5v5H110V35M120 35h5v5H120V35M125 35h5v5H125V35M140 35h5v5H140V35M150 35h5v5H150V35M160 35h5v5H160V35M165 35h5v5H165V35M170 35h5v5H170V35M180 35h5v5H180V35M20 40h5v5H20V40M30 40h5v5H30V40M35 40h5v5H35V40M40 40h5v5H40V40M50 40h5v5H50V40M60 40h5v5H60V40M90 40h5v5H90V40M95 40h5v5H95V40M100 40h5v5H100V40M110 40h5v5H110V40M115 40h5v5H115V40M120 40h5v5H120V40M130 40h5v5H130V40M150 40h5v5H150V40M160 40h5v5H160V40M165 40h5v5H165V40M170 40h5v5H170V40M180 40h5v5H180V40M20 45h5v5H20V45M50 45h5v5H50V45M60 45h5v5H60V45M75 45h5v5H75V45M80 45h5v5H80V45M85 45h5v5H85V45M105 45h5v5H105V45M115 45h5v5H115V45M130 45h5v5H130V45M135 45h5v5H135V45M140 45h5v5H140V45M150 45h5v5H150V45M180 45h5v5H180V45M20 50h5v5H20V50M25 50h5v5H25V50M30 50h5v5H30V50M35 50h5v5H35V50M40 50h5v5H40V50M45 50h5v5H45V50M50 50h5v5H50V50M60 50h5v5H60V50M70 50h5v5H70V50M80 50h5v5H80V50M90 50h5v5H90V50M100 50h5v5H100V50M110 50h5v5H110V50M120 50h5v5H120V50M130 50h5v5H130V50M140 50h5v5H140V50M150 50h5v5H150V50M155 50h5v5H155V50M160 50h5v5H160V50M165 50h5v5H165V50M170 50h5v5H170V50M175 50h5v5H175V50M180 50h5v5H180V50M60 55h5v5H60V55M70 55h5v5H70V55M75 55h5v5H75V55M85 55h5v5H85V55M100 55h5v5H100V55M105 55h5v5H105V55M110 55h5v5H110V55M115 55h5v5H115V55M125 55h5v5H125V55M135 55h5v5H135V55M20 60h5v5H20V60M30 60h5v5H30V60M35 60h5v5H35V60M40 60h5v5H40V60M45 60h5v5H45V60M50 60h5v5H50V60M75 60h5v5H75V60M85 60h5v5H85V60M90 60h5v5H90V60M100 60h5v5H100V60M110 60h5v5H110V60M125 60h5v5H125V60M130 60h5v5H130V60M140 60h5v5H140V60M150 60h5v5H150V60M155 60h5v5H155V60M160 60h5v5H160V60M165 60h5v5H165V60M170 60h5v5H170V60M30 65h5v5H30V65M40 65h5v5H40V65M45 65h5v5H45V65M55 65h5v5H55V65M65 65h5v5H65V65M70 65h5v5H70V65M85 65h5v5H85V65M90 65h5v5H90V65M95 65h5v5H95V65M105 65h5v5H105V65M115 65h5v5H115V65M120 65h5v5H120V65M125 65h5v5H125V65M135 65h5v5H135V65M145 65h5v5H145V65M150 65h5v5H150V65M165 65h5v5H165V65M170 65h5v5H170V65M40 70h5v5H40V70M50 70h5v5H50V70M55 70h5v5H55V70M65 70h5v5H65V70M70 70h5v5H70V70M80 70h5v5H80V70M85 70h5v5H85V70M90 70h5v5H90V70M105 70h5v5H105V70M115 70h5v5H115V70M130 70h5v5H130V70M145 70h5v5H145V70M160 70h5v5H160V70M170 70h5v5H170V70M175 70h5v5H175V70M20 75h5v5H20V75M40 75h5v5H40V75M45 75h5v5H45V75M65 75h5v5H65V75M85 75h5v5H85V75M100 75h5v5H100V75M105 75h5v5H105V75M110 75h5v5H110V75M115 75h5v5H115V75M130 75h5v5H130V75M145 75h5v5H145V75M160 75h5v5H160V75M165 75h5v5H165V75M170 75h5v5H170V75M20 80h5v5H20V80M30 80h5v5H30V80M35 80h5v5H35V80M50 80h5v5H50V80M55 80h5v5H55V80M60 80h5v5H60V80M70 80h5v5H70V80M75 80h5v5H75V80M80 80h5v5H80V80M90 80h5v5H90V80M95 80h5v5H95V80M100 80h5v5H100V80M145 80h5v5H145V80M160 80h5v5H160V80M165 80h5v5H165V80M175 80h5v5H175V80M20 85h5v5H20V85M25 85h5v5H25V85M30 85h5v5H30V85M40 85h5v5H40V85M55 85h5v5H55V85M65 85h5v5H65V85M70 85h5v5H70V85M85 85h5v5H85V85M95 85h5v5H95V85M110 85h5v5H110V85M115 85h5v5H115V85M120 85h5v5H120V85M125 85h5v5H125V85M140 85h5v5H140V85M150 85h5v5H150V85M155 85h5v5H155V85M165 85h5v5H165V85M170 85h5v5H170V85M175 85h5v5H175V85M180 85h5v5H180V85M25 90h5v5H25V90M30 90h5v5H30V90M35 90h5v5H35V90M40 90h5v5H40V90M50 90h5v5H50V90M55 90h5v5H55V90M85 90h5v5H85V90M95 90h5v5H95V90M100 90h5v5H100V90M105 90h5v5H105V90M115 90h5v5H115V90M140 90h5v5H140V90M155 90h5v5H155V90M160 90h5v5H160V90M165 90h5v5H165V90M170 90h5v5H170V90M175 90h5v5H175V90M30 95h5v5H30V95M40 95h5v5H40V95M45 95h5v5H45V95M55 95h5v5H55V95M60 95h5v5H60V95M70 95h5v5H70V95M80 95h5v5H80V95M85 95h5v5H85V95M90 95h5v5H90V95M95 95h5v5H95V95M115 95h5v5H115V95M120 95h5v5H120V95M125 95h5v5H125V95M135 95h5v5H135V95M145 95h5v5H145V95M150 95h5v5H150V95M165 95h5v5H165V95M170 95h5v5H170V95M25 100h5v5H25V100M30 100h5v5H30V100M50 100h5v5H50V100M70 100h5v5H70V100M85 100h5v5H85V100M90 100h5v5H90V100M95 100h5v5H95V100M125 100h5v5H125V100M130 100h5v5H130V100M145 100h5v5H145V100M155 100h5v5H155V100M160 100h5v5H160V100M170 100h5v5H170V100M180 100h5v5H180V100M25 105h5v5H25V105M30 105h5v5H30V105M35 105h5v5H35V105M40 105h5v5H40V105M45 105h5v5H45V105M55 105h5v5H55V105M60 105h5v5H60V105M65 105h5v5H65V105M70 105h5v5H70V105M75 105h5v5H75V105M80 105h5v5H80V105M100 105h5v5H100V105M110 105h5v5H110V105M125 105h5v5H125V105M130 105h5v5H130V105M135 105h5v5H135V105M150 105h5v5H150V105M155 105h5v5H155V105M165 105h5v5H165V105M170 105h5v5H170V105M175 105h5v5H175V105M180 105h5v5H180V105M30 110h5v5H30V110M35 110h5v5H35V110M45 110h5v5H45V110M50 110h5v5H50V110M55 110h5v5H55V110M60 110h5v5H60V110M110 110h5v5H110V110M120 110h5v5H120V110M130 110h5v5H130V110M145 110h5v5H145V110M160 110h5v5H160V110M170 110h5v5H170V110M20 115h5v5H20V115M40 115h5v5H40V115M65 115h5v5H65V115M75 115h5v5H75V115M85 115h5v5H85V115M90 115h5v5H90V115M115 115h5v5H115V115M125 115h5v5H125V115M140 115h5v5H140V115M150 115h5v5H150V115M160 115h5v5H160V115M165 115h5v5H165V115M170 115h5v5H170V115M20 120h5v5H20V120M25 120h5v5H25V120M30 120h5v5H30V120M40 120h5v5H40V120M50 120h5v5H50V120M60 120h5v5H60V120M65 120h5v5H65V120M70 120h5v5H70V120M75 120h5v5H75V120M85 120h5v5H85V120M90 120h5v5H90V120M95 120h5v5H95V120M110 120h5v5H110V120M120 120h5v5H120V120M125 120h5v5H125V120M135 120h5v5H135V120M150 120h5v5H150V120M165 120h5v5H165V120M175 120h5v5H175V120M20 125h5v5H20V125M40 125h5v5H40V125M65 125h5v5H65V125M70 125h5v5H70V125M90 125h5v5H90V125M95 125h5v5H95V125M100 125h5v5H100V125M115 125h5v5H115V125M120 125h5v5H120V125M125 125h5v5H125V125M130 125h5v5H130V125M145 125h5v5H145V125M155 125h5v5H155V125M160 125h5v5H160V125M165 125h5v5H165V125M170 125h5v5H170V125M180 125h5v5H180V125M20 130h5v5H20V130M35 130h5v5H35V130M40 130h5v5H40V130M50 130h5v5H50V130M60 130h5v5H60V130M65 130h5v5H65V130M80 130h5v5H80V130M90 130h5v5H90V130M105 130h5v5H105V130M115 130h5v5H115V130M155 130h5v5H155V130M160 130h5v5H160V130M175 130h5v5H175V130M20 135h5v5H20V135M35 135h5v5H35V135M40 135h5v5H40V135M45 135h5v5H45V135M60 135h5v5H60V135M65 135h5v5H65V135M85 135h5v5H85V135M100 135h5v5H100V135M105 135h5v5H105V135M110 135h5v5H110V135M115 135h5v5H115V135M120 135h5v5H120V135M125 135h5v5H125V135M130 135h5v5H130V135M135 135h5v5H135V135M145 135h5v5H145V135M165 135h5v5H165V135M180 135h5v5H180V135M20 140h5v5H20V140M40 140h5v5H40V140M45 140h5v5H45V140M50 140h5v5H50V140M65 140h5v5H65V140M70 140h5v5H70V140M75 140h5v5H75V140M85 140h5v5H85V140M110 140h5v5H110V140M120 140h5v5H120V140M125 140h5v5H125V140M140 140h5v5H140V140M145 140h5v5H145V140M150 140h5v5H150V140M155 140h5v5H155V140M160 140h5v5H160V140M165 140h5v5H165V140M175 140h5v5H175V140M180 140h5v5H180V140M60 145h5v5H60V145M70 145h5v5H70V145M90 145h5v5H90V145M105 145h5v5H105V145M110 145h5v5H110V145M125 145h5v5H125V145M130 145h5v5H130V145M135 145h5v5H135V145M140 145h5v5H140V145M160 145h5v5H160V145M170 145h5v5H170V145M175 145h5v5H175V145M180 145h5v5H180V145M20 150h5v5H20V150M25 150h5v5H25V150M30 150h5v5H30V150M35 150h5v5H35V150M40 150h5v5H40V150M45 150h5v5H45V150M50 150h5v5H50V150M85 150h5v5H85V150M90 150h5v5H90V150M95 150h5v5H95V150M105 150h5v5H105V150M115 150h5v5H115V150M120 150h5v5H120V150M130 150h5v5H130V150M135 150h5v5H135V150M140 150h5v5H140V150M150 150h5v5H150V150M160 150h5v5H160V150M170 150h5v5H170V150M180 150h5v5H180V150M20 155h5v5H20V155M50 155h5v5H50V155M60 155h5v5H60V155M70 155h5v5H70V155M85 155h5v5H85V155M100 155h5v5H100V155M105 155h5v5H105V155M110 155h5v5H110V155M115 155h5v5H115V155M125 155h5v5H125V155M130 155h5v5H130V155M135 155h5v5H135V155M140 155h5v5H140V155M160 155h5v5H160V155M170 155h5v5H170V155M20 160h5v5H20V160M30 160h5v5H30V160M35 160h5v5H35V160M40 160h5v5H40V160M50 160h5v5H50V160M60 160h5v5H60V160M65 160h5v5H65V160M90 160h5v5H90V160M95 160h5v5H95V160M100 160h5v5H100V160M120 160h5v5H120V160M125 160h5v5H125V160M130 160h5v5H130V160M140 160h5v5H140V160M145 160h5v5H145V160M150 160h5v5H150V160M155 160h5v5H155V160M160 160h5v5H160V160M165 160h5v5H165V160M175 160h5v5H175V160M20 165h5v5H20V165M30 165h5v5H30V165M35 165h5v5H35V165M40 165h5v5H40V165M50 165h5v5H50V165M60 165h5v5H60V165M65 165h5v5H65V165M75 165h5v5H75V165M80 165h5v5H80V165M85 165h5v5H85V165M95 165h5v5H95V165M110 165h5v5H110V165M125 165h5v5H125V165M135 165h5v5H135V165M140 165h5v5H140V165M145 165h5v5H145V165M155 165h5v5H155V165M160 165h5v5H160V165M165 165h5v5H165V165M170 165h5v5H170V165M20 170h5v5H20V170M30 170h5v5H30V170M35 170h5v5H35V170M40 170h5v5H40V170M50 170h5v5H50V170M60 170h5v5H60V170M65 170h5v5H65V170M70 170h5v5H70V170M75 170h5v5H75V170M95 170h5v5H95V170M100 170h5v5H100V170M105 170h5v5H105V170M115 170h5v5H115V170M135 170h5v5H135V170M150 170h5v5H150V170M155 170h5v5H155V170M165 170h5v5H165V170M20 175h5v5H20V175M50 175h5v5H50V175M90 175h5v5H90V175M95 175h5v5H95V175M115 175h5v5H115V175M120 175h5v5H120V175M130 175h5v5H130V175M135 175h5v5H135V175M145 175h5v5H145V175M155 175h5v5H155V175M160 175h5v5H160V175M170 175h5v5H170V175M20 180h5v5H20V180M25 180h5v5H25V180M30 180h5v5H30V180M35 180h5v5H35V180M40 180h5v5H40V180M45 180h5v5H45V180M50 180h5v5H50V180M60 180h5v5H60V180M65 180h5v5H65V180M75 180h5v5H75V180M80 180h5v5H80V180M95 180h5v5H95V180M100 180h5v5H100V180M120 180h5v5H120V180M125 180h5v5H125V180M140 180h5v5H140V180M145 180h5v5H145V180M150 180h5v5H150V180M155 180h5v5H155V180M160 180h5v5H160V180M170 180h5v5H170V180M175 180h5v5H175V180"/></svg>